<?xml version="1.0" encoding="UTF-8" standalone="no"?>
<svg
   version="1.0"
   width="1280.000000pt"
   height="749.000000pt"
   viewBox="0 0 1280.000000 749.000000"
   preserveAspectRatio="xMidYMid meet"
   id="svg1"
   sodipodi:docname="CITY.svg"
   inkscape:export-filename="CITY.svg"
   inkscape:export-xdpi="96"
   inkscape:export-ydpi="96"
   inkscape:version="1.3.1 (9b9bdc1480, 2023-11-25, custom)"
   xmlns:inkscape="http://www.inkscape.org/namespaces/inkscape"
   xmlns:sodipodi="http://sodipodi.sourceforge.net/DTD/sodipodi-0.dtd"
   xmlns="http://www.w3.org/2000/svg"
   xmlns:svg="http://www.w3.org/2000/svg">
  <defs
     id="defs1" />
  <sodipodi:namedview
     id="namedview1"
     pagecolor="#505050"
     bordercolor="#eeeeee"
     borderopacity="1"
     inkscape:showpageshadow="0"
     inkscape:pageopacity="0"
     inkscape:pagecheckerboard="0"
     inkscape:deskcolor="#d1d1d1"
     inkscape:document-units="pt"
     inkscape:zoom="0.79335938"
     inkscape:cx="853.33333"
     inkscape:cy="499.14328"
     inkscape:window-width="1920"
     inkscape:window-height="1016"
     inkscape:window-x="0"
     inkscape:window-y="0"
     inkscape:window-maximized="1"
     inkscape:current-layer="svg1" />
  <metadata
     id="metadata1">
Created by potrace 1.15, written by Peter Selinger 2001-2017
</metadata>
  <g
     transform="matrix(-0.1,0,0,-0.1,1280.5,749)"
     fill="#000000"
     stroke="none"
     id="g1">
    <path
       d="m 4895,7310 c -145,-38 -267,-110 -362,-214 -107,-117 -163,-233 -189,-391 -14,-82 -15,-113 -6,-189 7,-50 19,-113 28,-139 l 16,-48 -393,-974 c -217,-536 -397,-975 -401,-975 -3,0 -38,18 -77,41 -166,96 -405,187 -613,233 -136,30 -325,56 -413,56 h -64 l -3,-47 -3,-48 -140,-6 C 1324,4565 499,3911 241,2994 c -64,-228 -76,-322 -76,-609 0,-228 3,-275 23,-380 137,-728 575,-1308 1227,-1626 309,-150 614,-219 974,-219 672,0 1300,299 1722,820 l 72,89 36,-25 c 20,-13 39,-24 44,-24 17,0 134,194 208,345 113,232 184,463 221,720 19,138 16,495 -5,635 -62,392 -210,748 -445,1064 -82,110 -270,308 -369,389 -35,28 -63,55 -63,61 0,11 118,318 125,324 2,2 552,-474 1223,-1058 l 1220,-1061 -19,-45 c -29,-65 -49,-168 -49,-257 0,-274 170,-534 420,-638 88,-37 223,-63 297,-57 51,5 53,4 62,-26 27,-84 131,-435 131,-440 0,-3 -34,-6 -75,-6 h -75 V 845 720 h 315 315 v 125 125 h -110 c -60,0 -110,3 -110,8 0,4 -38,127 -84,274 l -83,268 41,24 c 159,93 279,257 322,442 17,70 19,74 48,78 47,7 377,28 380,24 2,-1 15,-64 30,-138 159,-801 745,-1451 1528,-1694 241,-75 440,-101 723,-93 219,6 347,24 539,78 785,221 1403,881 1571,1679 16,73 44,268 45,303 0,14 9,17 50,17 h 50 v 159 c 0,356 -76,682 -234,1006 -259,530 -694,930 -1246,1148 -245,97 -492,146 -771,154 -363,11 -686,-51 -1010,-192 -56,-25 -103,-44 -104,-43 -1,2 -144,249 -318,550 l -316,547 117,265 117,265 335,152 c 285,130 341,159 377,195 85,87 80,218 -11,302 -24,23 -61,45 -83,51 -50,13 -802,31 -1307,31 -371,0 -404,-1 -436,-19 -52,-27 -80,-74 -80,-134 0,-72 27,-109 113,-157 112,-63 533,-274 680,-341 72,-33 136,-64 140,-68 5,-5 -43,-122 -106,-262 l -115,-254 -2017,-3 c -1613,-2 -2016,0 -2012,10 3,7 71,175 151,373 l 146,360 -24,55 c -87,193 -48,400 103,551 80,80 166,124 276,141 96,15 137,8 435,-70 336,-89 310,-84 319,-59 21,58 53,209 45,216 -5,5 -145,42 -311,85 -291,73 -307,76 -415,75 -77,0 -136,-6 -183,-19 z M 8262,5345 c 4,-4 -1104,-2511 -1114,-2520 -2,-2 -55,0 -118,2 l -115,6 -65,209 c -36,116 -66,216 -68,224 -3,11 16,14 93,14 h 96 l -3,123 -3,122 h -310 -310 l -3,-122 -3,-123 h 89 89 l 80,-262 c 71,-230 79,-264 65,-273 -8,-5 -44,-31 -78,-57 l -63,-47 -1223,1066 c -673,585 -1232,1073 -1242,1084 -20,18 -19,22 88,289 l 108,270 h 2002 c 1102,0 2005,-2 2008,-5 z m 531,-539 265,-459 -77,-55 c -381,-272 -664,-635 -835,-1070 -93,-237 -156,-560 -156,-802 0,-64 -4,-92 -12,-94 -7,-3 -79,-7 -159,-10 l -146,-7 -26,71 c -44,119 -136,240 -248,325 l -26,20 570,1283 c 352,791 573,1278 578,1270 4,-7 127,-220 272,-472 z M 2620,4236 c 206,-28 371,-77 556,-165 128,-62 234,-125 234,-140 0,-5 -99,-255 -221,-557 -144,-357 -234,-567 -259,-603 -108,-160 -281,-256 -480,-268 -107,-6 -142,-20 -170,-66 -24,-39 -25,-68 -4,-113 25,-51 62,-66 164,-65 309,2 592,175 739,451 22,41 128,293 236,560 109,267 201,489 206,495 19,20 209,-190 314,-345 76,-114 177,-321 220,-452 212,-653 54,-1362 -414,-1860 C 3271,606 2549,403 1890,587 c -319,88 -579,242 -820,483 -194,194 -319,380 -415,620 -97,240 -130,419 -129,700 0,279 31,445 131,695 110,275 316,556 548,745 270,220 605,364 955,409 105,14 347,12 460,-3 z m 8008,-10 c 412,-77 745,-255 1028,-548 655,-678 700,-1732 106,-2469 -84,-104 -250,-261 -358,-337 -309,-220 -645,-334 -1024,-349 -798,-31 -1531,461 -1814,1220 -33,87 -74,241 -91,337 l -6,36 343,22 c 189,12 555,36 815,53 l 472,31 32,-26 c 119,-101 267,-99 369,4 134,133 93,351 -80,429 -25,11 -56,21 -70,21 -23,0 -65,69 -430,702 -223,385 -406,704 -408,708 -3,8 80,47 179,84 85,32 252,73 369,91 123,18 450,14 568,-9 z M 9579,3447 c 157,-270 338,-585 403,-698 l 119,-206 -17,-36 c -15,-31 -23,-37 -58,-41 -23,-3 -354,-26 -736,-51 -382,-25 -728,-48 -767,-52 l -73,-6 v 59 c 0,33 7,115 15,184 51,435 246,828 562,1132 82,78 245,208 261,208 4,0 135,-222 291,-493 z"
       id="path1" />
  </g>
</svg>
